<svg width="181" height="49" viewBox="0 0 181 49" fill="none" xmlns="http://www.w3.org/2000/svg">
<path d="M11.008 22.688H18.016L25.744 2.576L25.024 1.664H1.744C1.36 1.664 1.072 1.52 0.976 1.376L1.744 7.376C1.744 7.232 1.84 7.328 2.224 7.328H16.912L11.008 22.688ZM30.352 38.336L29.632 32.288C29.584 32.432 29.392 32.336 29.056 32.336H7.264L5.392 37.136L6.016 38H29.536C29.92 38 30.208 38.144 30.352 38.336ZM46.2269 38.576L45.8429 33.728C41.7149 33.2 38.2109 29.264 37.5389 24.608C36.8189 19.568 39.6509 16.16 43.9709 16.16C47.6669 16.16 50.3549 18.416 51.5549 20.48L53.6189 35.072C54.5789 37.712 57.4109 38.576 59.1389 38.576C61.8269 38.576 63.4589 37.424 64.0349 36.128L62.2109 33.2C62.0669 33.488 61.6829 33.584 61.2509 33.584C59.8589 33.584 59.1869 32.24 58.8509 30.08L56.2589 12.032H50.4989L50.9309 15.152C49.9229 13.712 47.0429 11.408 43.1069 11.408C35.6669 11.408 30.6749 17.312 31.7789 25.184C32.7869 32.48 39.0269 38.384 46.2269 38.576ZM70.186 48.368H76.138L72.25 21.152C72.826 19.136 74.938 16.352 78.49 16.352C83.29 16.352 86.698 19.856 87.466 25.088C87.946 28.832 86.65 33.2 81.994 33.68L82.378 38.672C89.914 38.528 94.426 32.576 93.226 24.32C92.218 17.168 87.226 11.408 79.594 11.408C75.562 11.408 72.826 13.712 71.578 15.872L70.954 12.032H65.05L70.186 48.368ZM100.432 38H106.384L101.104 0.223997L95.2004 0.559999L100.432 38ZM111.697 6.896C114.049 6.896 115.153 5.024 114.865 3.2C114.673 1.616 113.281 0.127998 111.361 0.127998C109.057 0.127998 107.809 2 108.049 3.872C108.289 5.408 109.585 6.896 111.697 6.896ZM113.281 38H119.233L115.585 11.888L109.681 12.272L113.281 38ZM124.341 27.632H130.293L129.333 21.44C130.581 18.896 132.645 17.12 135.477 17.12C138.069 17.12 140.469 19.136 140.901 22.064L143.109 38H149.013L146.757 21.68C145.749 14.576 142.437 11.408 136.533 11.408C132.453 11.408 129.765 13.952 128.709 15.728L128.085 12.032H122.133L124.341 27.632ZM168.513 29.072C173.697 28.208 176.385 24.656 175.761 20.096C175.569 18.8 174.945 17.408 174.129 16.64C174.657 15.968 175.713 15.68 177.105 15.68L176.817 11.408C174.129 11.408 172.497 12.56 171.633 13.712C170.193 12.608 168.561 11.888 166.353 11.552L166.737 16.448C168.657 17.12 170.145 18.752 170.433 20.768C170.673 22.448 169.953 23.696 168.177 24.368L168.513 29.072ZM154.545 31.088C155.073 34.688 160.305 37.28 166.641 36.896C170.001 36.704 172.257 37.28 173.553 38.096L180.321 37.856C178.785 34.256 174.945 32.048 168.417 32.336C163.185 32.528 159.873 31.52 159.585 29.504C159.537 28.88 159.777 28.208 160.017 28.064C160.881 28.544 161.985 28.88 163.329 29.12L162.945 24.272C161.025 23.552 159.537 22.016 159.249 20.096C159.009 18.368 159.873 17.072 161.553 16.4L161.169 11.696C156.465 12.608 153.153 16.112 153.825 20.768C154.209 23.6 155.937 25.328 157.041 26.144C155.985 26.576 154.209 28.496 154.545 31.088ZM155.649 40.448C156.369 45.68 161.217 48.992 169.521 48.992C175.233 48.992 179.313 47.072 180.561 43.712L169.233 43.856C164.001 43.856 161.505 42.032 161.121 40.496L155.697 38.912C155.601 39.344 155.553 39.872 155.649 40.448Z" fill="#27AE60"/>
</svg>
